<svg width="10" height="20" viewBox="0 0 10 20" fill="none" xmlns="http://www.w3.org/2000/svg">
<path d="M1.62048 1.06958C1.74236 1.06493 1.86119 1.10587 1.95544 1.18286L7.6488 6.81567C8.06704 7.23332 8.39883 7.72969 8.62537 8.27563C8.85215 8.82226 8.96912 9.40843 8.96912 10.0002C8.96909 10.5921 8.8522 11.1782 8.62537 11.7249C8.42689 12.2031 8.14759 12.6431 7.80017 13.0256L7.64685 13.1858L1.98669 18.8362L1.98279 18.8401C1.93415 18.8898 1.87549 18.9295 1.81091 18.9553C1.74645 18.9811 1.67718 18.9929 1.60779 18.9905H1.59216C1.52605 18.9902 1.46068 18.9762 1.39978 18.9504C1.33884 18.9247 1.283 18.8873 1.23669 18.8401L1.23474 18.8372L1.17224 18.762C1.1182 18.6806 1.08923 18.5837 1.08923 18.4846C1.08934 18.3532 1.14049 18.2265 1.23279 18.1331L1.23376 18.134L6.89392 12.4739V12.4729C7.54912 11.8167 7.9173 10.9275 7.91736 10.0002C7.91736 9.13069 7.59359 8.29446 7.01306 7.65259L6.89392 7.52661L1.25427 1.88696C1.17637 1.7924 1.13528 1.6727 1.14001 1.55005C1.14493 1.4243 1.19751 1.30506 1.2865 1.21606C1.37552 1.12715 1.49475 1.07444 1.62048 1.06958Z" fill="black" stroke="#7F3DFF"/>
</svg>
